<svg width="32" height="32" viewBox="0 0 32 32" fill="none" xmlns="http://www.w3.org/2000/svg">
<path fill-rule="evenodd" clip-rule="evenodd" d="M18.3768 2.23857C14.6242 1.56545 10.3954 2.23015 6.85796 5.29843C1.18 10.2233 1.62683 17.1764 2.55575 20.0044C2.72809 20.5291 2.44245 21.0942 1.91774 21.2666C1.39304 21.4389 0.827968 21.1533 0.655621 20.6286C-0.42408 17.3414 -0.9505 9.42377 5.54749 3.78758C9.62003 0.255161 14.4922 -0.490148 18.7299 0.269983C21.7898 0.81883 24.593 2.1668 26.5728 3.89121V2.68364C26.5728 2.13136 27.0205 1.68364 27.5728 1.68364C28.125 1.68364 28.5728 2.13136 28.5728 2.68364V6.4949C28.5728 7.04718 28.125 7.49532 27.5728 7.49532H23.7212C23.1689 7.49532 22.7212 7.0476 22.7212 6.49532C22.7212 5.94303 23.1689 5.49532 23.7212 5.49532H25.3671C23.7083 4.00986 21.2186 2.74828 18.3768 2.23857ZM16.0491 6.23906C16.6014 6.23906 17.0491 6.68678 17.0491 7.23906V8.44531C19.2871 8.90751 20.2757 10.8733 20.5035 11.8846C20.6249 12.4234 20.2865 12.9586 19.7477 13.0799C19.2089 13.2013 18.6738 12.8629 18.5524 12.3241C18.4339 11.7981 17.9811 10.9199 17.0491 10.5358V15.0878C17.8421 15.3914 18.6996 15.7703 19.3921 16.3256C20.285 17.0417 20.9109 18.056 20.9007 19.4869C20.8815 21.9144 19.0239 23.4072 17.0491 23.7414V24.3141C17.0491 24.8664 16.6014 25.3141 16.0491 25.3141C15.4968 25.3141 15.0491 24.8664 15.0491 24.3141V23.6892C13.3319 23.3073 11.7468 22.0364 11.1377 19.7357C10.9963 19.2018 11.3145 18.6544 11.8484 18.5131C12.3823 18.3717 12.9297 18.69 13.071 19.2238C13.4155 20.525 14.1809 21.2769 15.0491 21.6087V16.4837C14.3914 16.2389 13.7039 15.9574 13.1333 15.5968C12.2567 15.0427 11.4934 14.2007 11.4467 12.8836C11.3844 11.1277 12.1494 9.93542 13.1748 9.22478C13.7762 8.80792 14.4448 8.5697 15.0491 8.44922V7.23906C15.0491 6.68678 15.4968 6.23906 16.0491 6.23906ZM15.0491 10.5125C14.7952 10.595 14.5408 10.7114 14.314 10.8686C13.8236 11.2085 13.4083 11.7671 13.4454 12.8126C13.4608 13.2464 13.6643 13.5664 14.2019 13.9062C14.4491 14.0624 14.732 14.2006 15.0491 14.3346V10.5125ZM17.0491 17.251V21.6995C18.1342 21.4055 18.8917 20.5714 18.9007 19.4726M17.0491 17.251C17.4756 17.4431 17.8427 17.6468 18.1408 17.8859C18.6233 18.2728 18.906 18.7344 18.9007 19.4726M30.1329 11.1496C30.6602 10.9854 31.2209 11.2796 31.3851 11.8069C32.6596 15.8979 32.7772 25.3311 23.0939 30.3463L23.0804 30.3531C18.2943 32.7406 13.6792 32.2088 10.1092 30.7948C8.32819 30.0893 6.79547 29.161 5.60736 28.2524C5.36815 28.0694 5.14045 27.8854 4.92567 27.7022C4.92838 28.2619 4.932 28.8132 4.93522 29.2337C4.93944 29.786 4.49516 30.2371 3.9429 30.2413C3.39063 30.2456 2.9395 29.8013 2.93527 29.249C2.93009 28.5714 2.92386 27.5545 2.92205 26.7063C2.92114 26.2827 2.92132 25.8983 2.92333 25.6186C2.92433 25.4798 2.92581 25.3613 2.92801 25.2751C2.92906 25.2341 2.93053 25.1894 2.93297 25.1503C2.93395 25.1346 2.93636 25.0975 2.94212 25.055C2.94421 25.0396 2.9521 24.9815 2.97183 24.9117C2.97964 24.8841 3.00646 24.7901 3.06833 24.6828C3.06862 24.6823 3.06902 24.6816 3.06952 24.6807C3.09301 24.6392 3.35147 24.1818 3.93524 24.1818H8.06637C8.61866 24.1818 9.06637 24.6295 9.06637 25.1818C9.06637 25.7341 8.61866 26.1818 8.06637 26.1818H6.22503C6.40862 26.3384 6.60779 26.4996 6.82232 26.6637C7.87935 27.4721 9.25278 28.3043 10.8457 28.9353C14.0221 30.1934 18.0237 30.6379 22.1808 28.5669C30.6802 24.1605 30.5822 15.9539 29.4756 12.4018C29.3114 11.8745 29.6057 11.3139 30.1329 11.1496Z" fill="#3372F9"/>
</svg>
