<svg width="34" height="19" viewBox="0 0 34 19" fill="none" xmlns="http://www.w3.org/2000/svg">
<path fill-rule="evenodd" clip-rule="evenodd" d="M16.6952 6.87073C16.7666 6.32308 17.2684 5.93701 17.8161 6.00843C19.3086 6.20305 20.4081 7.26908 20.8189 8.50689C21.2401 9.7764 20.9545 11.2976 19.6276 12.2863C19.6026 12.305 19.5767 12.3225 19.55 12.3387C18.7801 12.8072 18.0268 13.0311 17.3025 12.9966C16.5708 12.9617 15.9699 12.6678 15.5059 12.2786C14.6231 11.5381 14.1866 10.4194 14.0275 9.75558C13.8988 9.2185 14.2299 8.67877 14.767 8.55006C15.304 8.42135 15.8438 8.75239 15.9725 9.28947C16.0821 9.74677 16.371 10.3938 16.7913 10.7464C16.9788 10.9037 17.1738 10.9882 17.3977 10.9989C17.6225 11.0096 17.9707 10.9499 18.4678 10.6557C18.9914 10.2449 19.1 9.67717 18.9206 9.13677C18.7269 8.55278 18.2143 8.07729 17.5575 7.99164C17.0098 7.92022 16.6237 7.41838 16.6952 6.87073Z" fill="#3372F9"/>
<path fill-rule="evenodd" clip-rule="evenodd" d="M2.22916 9.33264C4.20822 12.4332 9.18738 17 16.5429 17C21.2464 17 24.5204 15.6932 26.9199 14.0271C29.0329 12.5599 30.5008 10.795 31.6988 9.26463C30.6061 8.10441 28.8536 6.56462 26.6454 5.19887C24.0314 3.58213 20.8375 2.24547 17.3933 2.025C14.0119 1.80854 10.7116 3.02629 7.91538 4.70789C5.45865 6.18533 3.45931 7.98038 2.22916 9.33264ZM6.88464 2.99395C9.8789 1.19325 13.5881 -0.222674 17.521 0.0290813C21.3911 0.276812 24.9019 1.76891 27.6975 3.49792C30.4915 5.22601 32.6296 7.2269 33.7653 8.57697C34.0689 8.93789 34.079 9.46188 33.7896 9.83429C33.7402 9.89792 33.69 9.96256 33.6391 10.0282C32.3791 11.6522 30.6651 13.8615 28.0606 15.6699C25.3269 17.568 21.6552 19 16.5429 19C7.78872 19 2.06126 13.2343 0.123274 9.70166C-0.0744712 9.34121 -0.0314467 8.89645 0.231724 8.58058C1.51726 7.03763 3.88697 4.79671 6.88464 2.99395Z" fill="#3372F9"/>
<path fill-rule="evenodd" clip-rule="evenodd" d="M17 14C19.9036 14 22 11.8483 22 9.50003C22 7.15175 19.9036 5.00003 17 5.00003C14.0964 5.00003 12 7.15175 12 9.50003C12 11.8483 14.0964 14 17 14ZM17 16C20.866 16 24 13.0899 24 9.50003C24 5.91018 20.866 3.00003 17 3.00003C13.134 3.00003 10 5.91018 10 9.50003C10 13.0899 13.134 16 17 16Z" fill="#3372F9"/>
</svg>
