<svg width="35" height="34" viewBox="0 0 35 34" fill="none" xmlns="http://www.w3.org/2000/svg">
<path fill-rule="evenodd" clip-rule="evenodd" d="M18.3272 0.183608C18.5922 -0.00383015 18.9317 -0.0510033 19.2377 0.0570843C22.5738 1.23528 27.924 4.10024 31.451 8.56439C33.2892 10.8911 34.6549 13.6823 34.9435 16.911C35.0012 17.5569 35.0156 18.2184 34.9825 18.8951C34.8484 21.6311 33.9996 23.9412 32.7152 25.8633C30.8845 28.603 28.198 30.5139 25.523 31.7935C22.8465 33.074 20.1193 33.7528 18.1192 33.9929C17.8352 34.027 17.5503 33.9379 17.3364 33.7481C17.1224 33.5583 17 33.286 17 33V23.7692C17 23.217 17.4477 22.7692 18 22.7692C18.5523 22.7692 19 23.217 19 23.7692V24.3077H24.1144C24.9137 22.504 25.5153 20.4016 25.7352 18H22.5237C21.9714 18 21.5237 17.5523 21.5237 17C21.5237 16.4477 21.9714 16 22.5237 16H25.8037C25.7504 13.8763 25.2975 11.9253 24.6203 10.1843H19.9047V13.6154C19.9047 14.1677 19.457 14.6154 18.9047 14.6154C18.3525 14.6154 17.9047 14.1677 17.9047 13.6154V1.00001C17.9047 0.675432 18.0623 0.371047 18.3272 0.183608ZM19.9047 8.18432H23.704C22.5746 6.05228 21.1606 4.33753 19.9047 3.13436V8.18432ZM23.709 4.45512C25.3337 5.46317 26.9898 6.71052 28.4453 8.18432H25.9399C25.2872 6.79297 24.5149 5.54436 23.709 4.45512ZM26.7533 10.1843C27.3636 11.9491 27.7591 13.8964 27.805 16H32.8041C32.4129 13.8476 31.4605 11.9068 30.1737 10.1843H26.7533ZM32.9987 18H27.7428C27.7427 18.0023 27.7425 18.0045 27.7423 18.0068C27.5445 20.3605 27.0125 22.461 26.2834 24.3077H31.3351C32.2677 22.7668 32.8795 20.9473 32.9849 18.7972C32.9981 18.5283 33.0025 18.2625 32.9987 18ZM29.8204 26.3077H25.372C24.368 28.2394 23.1665 29.8246 21.9864 31.0627C22.8596 30.7738 23.763 30.4185 24.6599 29.9894C26.5454 29.0874 28.3659 27.8774 29.8204 26.3077ZM19 31.1075C20.275 30.0801 21.7998 28.4806 23.0847 26.3077H19V31.1075Z" fill="#3372F9"/>
<path fill-rule="evenodd" clip-rule="evenodd" d="M0 12.1379C0 11.5856 0.447715 11.1379 1 11.1379H13.8042C14.0401 11.1379 14.2254 11.2234 14.2615 11.24L14.2654 11.2418C14.3347 11.2731 14.3975 11.3084 14.4453 11.3367C14.5437 11.3948 14.655 11.4692 14.7687 11.5487C14.9999 11.7104 15.3023 11.9364 15.6517 12.2053C16.3538 12.7455 17.2846 13.4889 18.2965 14.3094C20.3223 15.9518 22.6954 17.921 24.2627 19.2332C24.6341 19.5443 24.7292 20.0768 24.4883 20.4971L22.3543 24.2213C22.2092 24.4746 21.9606 24.6518 21.6739 24.7064C21.3871 24.7611 21.0908 24.6877 20.8627 24.5056L15.231 20.0091V32C15.231 32.5522 14.7833 33 14.231 33C13.6787 33 13.231 32.5522 13.231 32V17.931C13.231 17.5468 13.4511 17.1965 13.7973 17.0299C14.1436 16.8633 14.5546 16.9098 14.8549 17.1495L21.199 22.2148L22.3364 20.2298C20.8119 18.9576 18.7917 17.2857 17.037 15.8629C16.0287 15.0455 15.1136 14.3148 14.4321 13.7903C14.0898 13.5269 13.816 13.323 13.6226 13.1878C13.5959 13.1691 13.5719 13.1526 13.5503 13.1379H2V25.4203L3.41444 25.7631V17.1034C3.41444 16.5511 3.86216 16.1034 4.41444 16.1034C4.96673 16.1034 5.41444 16.5511 5.41444 17.1034V32C5.41444 32.5522 4.96673 33 4.41444 33C3.86216 33 3.41444 32.5522 3.41444 32V27.821L0.764442 27.1787C0.315882 27.07 0 26.6684 0 26.2069V12.1379Z" fill="#3372F9"/>
<path fill-rule="evenodd" clip-rule="evenodd" d="M9.13793 2.00001C7.4049 2.00001 6 3.40491 6 5.13794C6 6.87097 7.4049 8.27587 9.13793 8.27587C10.871 8.27587 12.2759 6.87097 12.2759 5.13794C12.2759 3.40491 10.871 2.00001 9.13793 2.00001ZM4 5.13794C4 2.30034 6.30033 6.5551e-06 9.13793 6.5551e-06C11.9755 6.5551e-06 14.2759 2.30034 14.2759 5.13794C14.2759 7.97554 11.9755 10.2759 9.13793 10.2759C6.30033 10.2759 4 7.97554 4 5.13794Z" fill="#3372F9"/>
</svg>
