<svg width="32" height="34" viewBox="0 0 32 34" fill="none" xmlns="http://www.w3.org/2000/svg">
<path fill-rule="evenodd" clip-rule="evenodd" d="M17.9262 0.0338177C18.1719 0.100758 18.3793 0.262198 18.5008 0.481173L20.7734 4.57649L24.5553 3.84629C25.0579 3.74923 25.5478 4.06261 25.6573 4.55133L26.7728 9.52881L31.8258 16.4675C31.9602 16.6519 32.0201 16.8782 31.9941 17.1031L30.1349 33.1841C30.1063 33.4317 29.976 33.6574 29.7737 33.8093C29.5715 33.9613 29.3147 34.0265 29.0622 33.9901L10.4712 31.31C10.1603 31.2651 9.89284 31.0718 9.75822 30.7945L0.0908707 10.8846C-0.118168 10.4541 0.0444783 9.93901 0.465509 9.69815L17.1975 0.126079C17.4175 0.000172887 17.6805 -0.0331221 17.9262 0.0338177ZM24.5701 8.29815L24.0156 5.82392L16.5486 7.26564L24.5701 8.29815ZM12.6059 8.02689L7.96618 8.92271L10.4973 24.0401L12.6059 8.02689ZM8.60487 24.129L6.01388 8.65411L2.16118 10.8582L8.60487 24.129ZM9.25362 6.8007L18.8397 4.94985L17.3094 2.19214L9.25362 6.8007ZM11.6599 29.6236L28.3737 32.0331L30.0192 17.8L24.622 17.1462C24.1129 17.0845 23.7481 16.6361 23.8019 16.138L24.4494 10.1364L14.3963 8.84234L11.6599 29.6236ZM26.1568 11.8551L25.7707 15.4334L29.0525 15.831L26.1568 11.8551Z" fill="#3372F9"/>
</svg>
