<svg width="33" height="33" viewBox="0 0 33 33" fill="none" xmlns="http://www.w3.org/2000/svg">
<path fill-rule="evenodd" clip-rule="evenodd" d="M26.4817 25.1761C28.8406 22.506 30.2748 18.9925 30.2748 15.1472C30.2748 6.78301 23.4989 0 15.1374 0C6.77583 0 0 6.78301 0 15.1472C0 23.5113 6.77583 30.2943 15.1374 30.2943C18.9336 30.2943 22.406 28.8938 25.0619 26.5847L31.2075 32.7084C31.5987 33.0982 32.2318 33.0971 32.6217 32.7058C33.0115 32.3146 33.0104 31.6815 32.6191 31.2916L26.4817 25.1761ZM23.6417 25.1683C21.35 27.1179 18.381 28.2943 15.1374 28.2943C7.8818 28.2943 2 22.4081 2 15.1472C2 7.88618 7.8818 2 15.1374 2C22.393 2 28.2748 7.88618 28.2748 15.1472C28.2748 18.4425 27.0633 21.4546 25.0617 23.7619C24.8813 23.9699 24.6945 24.1721 24.5015 24.3683C24.4607 24.4098 24.4197 24.451 24.3783 24.4919C24.1415 24.7265 23.8958 24.9522 23.6417 25.1683Z" fill="#3372F9"/>
<path fill-rule="evenodd" clip-rule="evenodd" d="M14.9292 8.12513C14.879 8.04329 14.7597 8.04447 14.7111 8.12728L7.85859 19.8092C7.80886 19.894 7.87 20.0007 7.96828 20.0007H12.0338C12.5861 20.0007 13.0338 20.4484 13.0338 21.0007C13.0338 21.553 12.5861 22.0007 12.0338 22.0007H7.96828C6.32425 22.0007 5.30166 20.2153 6.13348 18.7973L12.986 7.11535C13.7986 5.73013 15.7943 5.71045 16.634 7.07938L23.7998 18.7613C24.6692 20.1786 23.6493 22.0007 21.9866 22.0007H17.8662C17.3139 22.0007 16.8662 21.553 16.8662 21.0007C16.8662 20.4484 17.3139 20.0007 17.8662 20.0007H21.9866C22.0197 20.0007 22.0387 19.9928 22.0518 19.9848C22.0677 19.975 22.0846 19.9587 22.0975 19.9356C22.1104 19.9126 22.1155 19.8897 22.1155 19.871C22.1155 19.8556 22.1123 19.8353 22.095 19.807L14.9292 8.12513ZM14.7992 10.2429C15.3515 10.2429 15.7992 10.6906 15.7992 11.2429V18.5093C15.7992 19.0616 15.3515 19.5093 14.7992 19.5093C14.2469 19.5093 13.7992 19.0616 13.7992 18.5093V11.2429C13.7992 10.6906 14.2469 10.2429 14.7992 10.2429Z" fill="#3372F9"/>
<path d="M16 21C16 21.5523 15.5523 22 15 22C14.4477 22 14 21.5523 14 21C14 20.4477 14.4477 20 15 20C15.5523 20 16 20.4477 16 21Z" fill="#3372F9"/>
</svg>
