<svg width="32" height="31" viewBox="0 0 32 31" fill="none" xmlns="http://www.w3.org/2000/svg">
<path fill-rule="evenodd" clip-rule="evenodd" d="M15.2587 4.49343C15.0844 5.18709 14.8659 5.99537 14.5428 6.89032C13.9182 8.62067 12.5014 9.59576 11.1387 10.1183C10.2224 10.4696 9.27371 10.641 8.4684 10.7022V27.8672H27C27.7071 27.8672 28.1833 27.7733 28.4561 27.6187C28.5734 27.5523 28.6379 27.483 28.6795 27.4092C28.7227 27.3325 28.7732 27.1932 28.7732 26.9414C28.7732 26.6604 28.7075 26.5187 28.6572 26.4432C28.6019 26.3603 28.5135 26.2811 28.366 26.2037C28.2114 26.1225 28.0305 26.0625 27.8102 25.9986C27.7871 25.9919 27.7617 25.9846 27.7348 25.9769C27.6516 25.9531 27.5549 25.9254 27.4732 25.8993C27.3713 25.8668 27.2032 25.81 27.0441 25.7158C26.6832 25.5019 26.4941 25.0854 26.5707 24.6729C26.6473 24.2604 26.9733 23.9395 27.387 23.8695C27.4298 23.8622 27.4744 23.855 27.5205 23.8474C27.8984 23.7858 28.3776 23.7076 28.799 23.4952C29.2094 23.2884 29.4424 23.0257 29.4424 22.5234C29.4424 21.948 29.2019 21.6765 28.8764 21.4677C28.6898 21.3479 28.4758 21.2541 28.2412 21.1635C28.212 21.1523 28.1525 21.1298 28.0895 21.1061C28.012 21.0769 27.9293 21.0457 27.8913 21.0309C27.7858 20.9898 27.6356 20.9291 27.498 20.8492C27.1443 20.6439 26.9512 20.2439 27.0106 19.8392C27.07 19.4346 27.3698 19.1068 27.7675 19.0118C27.8376 18.995 27.9123 18.9786 27.9906 18.9613C28.3653 18.8788 28.8221 18.7783 29.2485 18.5395C29.6985 18.2876 30 17.9472 30 17.3125C30 16.9358 29.8191 16.6906 29.3488 16.4576C28.9687 16.2692 28.6002 16.1805 28.2251 16.0901C28.059 16.0501 27.8916 16.0098 27.7213 15.9604C27.2431 15.8216 26.9399 15.3522 27.01 14.8592C27.08 14.3663 27.5021 14 28 14C28.1799 14 28.5906 13.9296 28.9242 13.7111C29.2023 13.529 29.4424 13.2444 29.4424 12.668C29.4424 12.1267 29.18 11.7558 28.772 11.4796C28.328 11.1789 27.8014 11.0625 27.5539 11.0625H19.0669C18.7882 11.0625 18.5221 10.9461 18.3328 10.7415C18.1435 10.5369 18.0482 10.2625 18.07 9.9846C18.3464 6.44594 18.1342 4.36059 17.7094 3.19817C17.5036 2.63471 17.2707 2.35253 17.0808 2.20788C16.9013 2.07113 16.6859 2 16.3903 2C16.1308 2 16.0686 2.06231 16.0354 2.09557C15.9556 2.1755 15.8396 2.36037 15.6982 2.80447C15.5945 3.13013 15.5029 3.50314 15.3897 3.96414C15.3493 4.12874 15.3061 4.30455 15.2587 4.49343ZM6.4684 29V8.79688H2V29H6.4684ZM8.4684 29.8672H27C27.7929 29.8672 28.7033 29.7775 29.4421 29.3588C29.8306 29.1386 30.1782 28.8239 30.4222 28.3905C30.6646 27.96 30.7732 27.4689 30.7732 26.9414C30.7732 26.3167 30.6173 25.7779 30.3212 25.3338C30.2519 25.2298 30.1774 25.1348 30.0994 25.0478C30.8163 24.567 31.4424 23.7693 31.4424 22.5234C31.4424 21.4258 31.0002 20.6683 30.4406 20.1556C31.254 19.6328 32 18.7401 32 17.3125C32 16.094 31.331 15.335 30.6185 14.8805C31.1018 14.3591 31.4424 13.6308 31.4424 12.668C31.4424 11.3061 30.7067 10.3743 29.8934 9.82355C29.1163 9.29729 28.1986 9.0625 27.5539 9.0625H20.1363C20.304 6.04648 20.1072 3.93284 19.588 2.51179C19.292 1.70172 18.8697 1.05641 18.2928 0.616949C17.7056 0.169589 17.0427 0 16.3903 0C15.7027 0 15.0953 0.206374 14.6196 0.682948C14.1906 1.11278 13.9578 1.67869 13.7925 2.19749C13.6664 2.59339 13.5516 3.0616 13.4329 3.54512C13.3955 3.69784 13.3576 3.8521 13.3189 4.00608C13.1517 4.6718 12.952 5.40697 12.6616 6.21125C12.3048 7.19964 11.4726 7.84825 10.4226 8.25086C9.7641 8.50338 9.06951 8.63769 8.4684 8.69497V7.79688C8.4684 7.24459 8.02069 6.79688 7.4684 6.79688H1C0.447715 6.79688 0 7.24459 0 7.79688V30C0 30.5523 0.447715 31 1 31H7.4684C8.02069 31 8.4684 30.5523 8.4684 30V29.8672Z" fill="#3372F9"/>
</svg>
