<svg width="39" height="32" viewBox="0 0 39 32" fill="none" xmlns="http://www.w3.org/2000/svg">
<path d="M5.93152 21.1234L1 19.2143V11.3571L20.3738 3.85714V26.7143L15.7945 24.9416M5.93152 21.1234V26L15.7945 31V24.9416M5.93152 21.1234L15.7945 24.9416M24.9531 10.2857C25.8924 11.119 27.7006 13.4286 27.4188 16C27.137 18.5714 25.6576 19.9286 24.9531 20.2857M28.8278 5.64286C30.1194 6.83333 32.7026 10.4286 32.7026 15.2857C32.7026 20.1429 30.1194 23.5 28.8278 24.5714M31.9981 1C34.1116 2.54329 38.2682 7.56104 37.9864 15.2857C37.7046 23.0104 33.8768 28.0281 31.9981 29.5714" stroke="#3372F9" stroke-width="2" stroke-linecap="round" stroke-linejoin="round"/>
</svg>
