<svg width="33" height="33" viewBox="0 0 33 33" fill="none" xmlns="http://www.w3.org/2000/svg">
<path fill-rule="evenodd" clip-rule="evenodd" d="M16.0585 22.7398C21.7857 22.7398 26.4284 18.097 26.4284 12.3699C26.4284 6.64275 21.7857 2 16.0585 2C10.3314 2 5.68867 6.64275 5.68867 12.3699C5.68867 18.097 10.3314 22.7398 16.0585 22.7398ZM16.0585 24.7398C22.8902 24.7398 28.4284 19.2016 28.4284 12.3699C28.4284 5.53819 22.8902 0 16.0585 0C9.22685 0 3.68867 5.53819 3.68867 12.3699C3.68867 19.2016 9.22685 24.7398 16.0585 24.7398Z" fill="#3372F9"/>
<path fill-rule="evenodd" clip-rule="evenodd" d="M7.184 18.7861C7.64994 19.0826 7.78729 19.7007 7.49078 20.1666L3.1896 26.9256L5.06003 26.458C5.32917 26.3907 5.61416 26.4383 5.84688 26.5893C6.07961 26.7403 6.23914 26.9812 6.28735 27.2544L6.67834 29.4699L11.2098 23.0847C11.5295 22.6343 12.1537 22.5283 12.6041 22.8479C13.0545 23.1675 13.1605 23.7918 12.8408 24.2422L6.92481 32.5784C6.69141 32.9073 6.2833 33.0638 5.88984 32.9753C5.49639 32.8868 5.1946 32.5706 5.12452 32.1734L4.50424 28.6585L1.24254 29.4739C0.8455 29.5732 0.428055 29.4205 0.188759 29.0885C-0.0505372 28.7565 -0.0633799 28.3122 0.156339 27.9669L5.80346 19.0929C6.09997 18.6269 6.71806 18.4896 7.184 18.7861Z" fill="#3372F9"/>
<path fill-rule="evenodd" clip-rule="evenodd" d="M25.4785 18.5136C25.0102 18.8063 24.8678 19.4232 25.1605 19.8916L29.2255 26.3956L27.3267 25.9209C27.0575 25.8536 26.7725 25.9012 26.5398 26.0522C26.3071 26.2032 26.1476 26.4441 26.0993 26.7173L25.7122 28.9113L21.4495 22.8218C21.1328 22.3693 20.5093 22.2593 20.0568 22.576C19.6044 22.8927 19.4943 23.5162 19.811 23.9687L25.4582 32.036C25.6901 32.3674 26.0988 32.5264 26.4937 32.4389C26.8886 32.3514 27.1919 32.0346 27.2622 31.6363L27.8825 28.1214L31.1442 28.9369C31.5398 29.0358 31.9558 28.8845 32.1956 28.5547C32.4353 28.2249 32.4508 27.7825 32.2347 27.4367L26.8565 18.8316C26.5638 18.3632 25.9468 18.2209 25.4785 18.5136Z" fill="#3372F9"/>
<path fill-rule="evenodd" clip-rule="evenodd" d="M21.1087 6.65173C21.5935 6.91619 21.7722 7.52363 21.5077 8.00848L16.6674 16.8825C16.5164 17.1592 16.2439 17.3485 15.932 17.3935C15.6201 17.4384 15.3052 17.3336 15.0824 17.1108L11.0487 13.0771C10.6582 12.6866 10.6582 12.0534 11.0487 11.6629C11.4392 11.2724 12.0724 11.2724 12.4629 11.6629L15.5515 14.7515L19.752 7.05078C20.0164 6.56593 20.6239 6.38727 21.1087 6.65173Z" fill="#3372F9"/>
</svg>
