<svg width="37" height="32" viewBox="0 0 37 32" fill="none" xmlns="http://www.w3.org/2000/svg">
<path fill-rule="evenodd" clip-rule="evenodd" d="M20.1477 14.4118C23.5751 14.4118 26.3535 11.6333 26.3535 8.20588C26.3535 4.77847 23.5751 2 20.1477 2C16.7202 2 13.9418 4.77847 13.9418 8.20588C13.9418 11.6333 16.7202 14.4118 20.1477 14.4118ZM20.1477 16.4118C24.6796 16.4118 28.3535 12.7379 28.3535 8.20588C28.3535 3.6739 24.6796 0 20.1477 0C15.6157 0 11.9418 3.6739 11.9418 8.20588C11.9418 12.7379 15.6157 16.4118 20.1477 16.4118Z" fill="#3372F9"/>
<path fill-rule="evenodd" clip-rule="evenodd" d="M19.6914 3.10306C20.2436 3.10306 20.6914 3.55078 20.6914 4.10306V7.88982H23.1105C23.6628 7.88982 24.1105 8.33754 24.1105 8.88982C24.1105 9.44211 23.6628 9.88982 23.1105 9.88982H19.6914C19.1391 9.88982 18.6914 9.44211 18.6914 8.88982V4.10306C18.6914 3.55078 19.1391 3.10306 19.6914 3.10306ZM27.5748 20.1121C27.6185 20.2053 27.6572 20.2961 27.6909 20.3838C27.7956 20.656 27.7762 20.9603 27.6379 21.217C27.4996 21.4738 27.2561 21.6573 26.9712 21.7197L19.6771 23.3153C19.1376 23.4333 18.6045 23.0916 18.4865 22.552C18.3685 22.0125 18.7102 21.4795 19.2497 21.3615L25.1372 20.0736C24.6215 19.5582 23.8828 19.2062 22.8794 19.4377C19.759 20.1578 16.4229 20.1515 12.8849 19.4439C11.7929 19.2255 10.7336 19.4763 9.81548 19.9257C9.11935 20.2664 8.54335 20.7032 8.15214 21.0689L9.22359 26.9024C9.56414 26.7 9.93266 26.4803 10.2872 26.2676C10.6543 26.0474 11.1213 25.9924 11.4592 25.9698C11.8493 25.9436 12.3102 25.9511 12.8022 25.9769C13.7886 26.0286 15.0076 26.1605 16.244 26.3026C16.4957 26.3316 16.7484 26.3609 17.0006 26.3903C18.0005 26.5066 18.9942 26.6221 19.9014 26.7064C21.0544 26.8135 21.9857 26.8612 22.5715 26.8124C22.6258 26.8079 22.8226 26.7581 23.1985 26.5473C23.5501 26.3502 23.9768 26.0593 24.4677 25.682C25.4479 24.9285 26.6099 23.8875 27.8248 22.7178C29.8116 20.8048 31.8931 18.5928 33.4724 16.8397C33.1658 16.7737 32.8205 16.7281 32.4561 16.7281C32.4616 16.7281 32.3941 16.7304 32.2294 16.7903C32.075 16.8465 31.8809 16.9363 31.6492 17.063C31.1856 17.3163 30.6383 17.68 30.0611 18.1029C29.1827 18.7464 28.2817 19.4926 27.5748 20.1121ZM9.6087 28.9991L9.73372 29.6798C9.83056 30.207 9.49449 30.7168 8.9718 30.8355L3.95709 31.9753C3.69406 32.035 3.41804 31.986 3.19167 31.8393C2.9653 31.6926 2.80779 31.4607 2.75489 31.1962L0.475478 19.7992C0.422608 19.5348 0.478711 19.2603 0.631065 19.0379C0.78342 18.8155 1.01912 18.664 1.28472 18.6178L6.52737 17.7061C7.06785 17.6121 7.58315 17.9711 7.68225 18.5106L7.74197 18.8358C8.09988 18.5851 8.50055 18.3426 8.93623 18.1293C10.1215 17.5492 11.634 17.1541 13.2772 17.4828C16.5775 18.1428 19.6237 18.1365 22.4297 17.489C24.1717 17.087 25.4944 17.6998 26.3797 18.5005C27.1019 17.8725 27.9961 17.1365 28.879 16.4896C29.4908 16.0414 30.1175 15.6209 30.69 15.308C31.2128 15.0222 31.8598 14.7281 32.4561 14.7281C33.9406 14.7281 35.1953 15.2481 35.7058 15.5544C35.9601 15.707 36.1336 15.9645 36.1794 16.2575C36.2252 16.5504 36.1386 16.8486 35.943 17.0715C34.2973 18.9467 31.6904 21.7723 29.212 24.1585C27.9746 25.3499 26.7518 26.4487 25.6866 27.2676C25.1549 27.6764 24.6438 28.0298 24.1766 28.2918C23.7336 28.5402 23.2305 28.7644 22.7376 28.8055C21.9559 28.8706 20.8642 28.8044 19.7164 28.6978C18.7838 28.6112 17.76 28.4921 16.758 28.3755C16.5086 28.3465 16.2605 28.3177 16.0156 28.2895C14.773 28.1467 13.613 28.0222 12.6975 27.9742C12.2386 27.9501 11.8678 27.9469 11.5928 27.9653C11.3775 27.9797 11.2901 28.004 11.279 28.0049C10.6942 28.3556 10.0763 28.7225 9.6087 28.9991ZM5.89411 19.8462L2.63776 20.4126L4.51475 29.7975L7.59338 29.0978L5.89411 19.8462Z" fill="#3372F9"/>
</svg>
