<svg width="33" height="33" viewBox="0 0 33 33" fill="none" xmlns="http://www.w3.org/2000/svg">
<path fill-rule="evenodd" clip-rule="evenodd" d="M10.5347 2.50301C5.30882 3.26503 1.72857 7.95058 2.45098 12.9048C2.61303 14.0162 3.35702 15.3602 4.53763 16.8173C5.69832 18.2498 7.19099 19.6833 8.68425 20.9677C10.1736 22.2487 11.6415 23.3626 12.7388 24.1572C13.1534 24.4575 13.5142 24.7114 13.8021 24.9109C14.0211 24.6375 14.2943 24.2911 14.6059 23.885C15.4306 22.8101 16.5193 21.3234 17.5809 19.6704C18.6452 18.0131 19.6663 16.213 20.3696 14.5087C21.085 12.7752 21.4142 11.2747 21.2522 10.1633C20.5297 5.20908 15.7606 1.741 10.5347 2.50301ZM13.9976 26.2519C13.4504 27.0889 13.45 27.0886 13.45 27.0886L13.4399 27.082L13.4127 27.0641C13.3892 27.0485 13.3548 27.0257 13.3103 26.9959C13.2213 26.9365 13.0918 26.8493 12.9274 26.7369C12.5988 26.512 12.1301 26.1857 11.5658 25.7771C10.4387 24.9609 8.92391 23.8119 7.38007 22.484C5.84015 21.1595 4.24921 19.6382 2.9837 18.0764C1.73813 16.5391 0.713345 14.8492 0.471909 13.1934C-0.419636 7.07921 3.99539 1.4354 10.2461 0.523943C16.4969 -0.38751 22.3397 3.76056 23.2312 9.87476C23.4727 11.5305 22.9731 13.4427 22.2184 15.2716C21.4516 17.1298 20.3613 19.0421 19.2637 20.7512C18.1633 22.4646 17.0398 23.9984 16.1926 25.1025C15.7686 25.6552 15.4126 26.1017 15.1618 26.4111C15.0364 26.5658 14.9372 26.6863 14.8689 26.7687C14.8516 26.7895 14.8363 26.808 14.823 26.8239C14.8101 26.8394 14.7991 26.8525 14.7901 26.8632L14.7692 26.8882L14.7619 26.8968C14.7619 26.8968 14.7611 26.8977 13.9976 26.2519ZM13.9976 26.2519L14.7611 26.8977L14.1902 27.5725L13.45 27.0886L13.9976 26.2519ZM11.3566 8.13961C9.35852 8.43096 8.02694 10.2114 8.29542 12.0526C8.56391 13.8939 10.3485 15.2199 12.3465 14.9286C14.3446 14.6372 15.6762 12.8568 15.4077 11.0156C15.1392 9.1743 13.3547 7.84826 11.3566 8.13961ZM6.31635 12.3412C5.87873 9.34001 8.04509 6.60133 11.068 6.16054C14.091 5.71975 16.9492 7.72577 17.3868 10.727C17.8244 13.7282 15.658 16.4669 12.6351 16.9076C9.61218 17.3484 6.75397 15.3424 6.31635 12.3412Z" fill="#3372F9"/>
<path fill-rule="evenodd" clip-rule="evenodd" d="M30.8899 14.5059C31.4388 14.4449 31.9332 14.8404 31.9942 15.3893C32.0778 16.1422 32.0882 16.8688 32.0303 17.5679C31.9847 18.1183 31.5016 18.5275 30.9512 18.4819C30.4008 18.4363 29.9916 17.9532 30.0371 17.4028C30.0839 16.8375 30.0764 16.2402 30.0064 15.6102C29.9454 15.0613 30.341 14.5669 30.8899 14.5059ZM30.3616 20.3776C30.8386 20.6559 30.9998 21.2682 30.7215 21.7453C29.9849 23.0081 28.988 24.0823 27.8307 24.9707C27.3926 25.307 26.7648 25.2244 26.4285 24.7864C26.0922 24.3483 26.1748 23.7205 26.6129 23.3842C27.5933 22.6316 28.4053 21.7466 28.9939 20.7376C29.2722 20.2605 29.8845 20.0993 30.3616 20.3776ZM24.6913 25.7335C24.8922 26.248 24.638 26.8279 24.1235 27.0288C22.8292 27.5343 21.4579 27.8897 20.0742 28.0954C19.5279 28.1766 19.0192 27.7996 18.938 27.2533C18.8568 26.707 19.2338 26.1984 19.7801 26.1171C21.0246 25.9321 22.2498 25.6135 23.396 25.1658C23.9104 24.9649 24.4903 25.2191 24.6913 25.7335ZM11.2478 26.75C11.2698 26.1981 11.735 25.7686 12.2869 25.7906C12.9101 25.8155 13.5475 25.8892 14.1964 26.019C14.7899 26.1377 15.4066 26.22 16.0381 26.2656C16.589 26.3053 17.0033 26.784 16.9636 27.3349C16.9239 27.8857 16.4451 28.3001 15.8943 28.2604C15.1838 28.2092 14.484 28.1161 13.8042 27.9802C13.2599 27.8713 12.727 27.8098 12.2071 27.7891C11.6553 27.767 11.2258 27.3018 11.2478 26.75ZM9.71585 26.9343C9.86171 27.467 9.54813 28.017 9.01546 28.1629C7.9231 28.462 6.91376 28.915 6.01249 29.4415C5.53561 29.7201 4.9232 29.5593 4.64462 29.0824C4.36604 28.6056 4.5268 27.9931 5.00367 27.7146C6.03293 27.1133 7.20295 26.5856 8.48726 26.2339C9.01993 26.088 9.56999 26.4016 9.71585 26.9343ZM3.41302 30.0068C3.79399 30.4066 3.77868 31.0396 3.37883 31.4206C2.92159 31.8562 2.55675 32.2663 2.29292 32.6093C1.95619 33.047 1.32834 33.1289 0.890589 32.7922C0.452835 32.4555 0.370942 31.8276 0.707676 31.3899C1.04084 30.9567 1.47615 30.471 1.99922 29.9726C2.39907 29.5916 3.03205 29.6069 3.41302 30.0068Z" fill="#3372F9"/>
</svg>
