<svg width="32" height="36" viewBox="0 0 32 36" fill="none" xmlns="http://www.w3.org/2000/svg">
<path fill-rule="evenodd" clip-rule="evenodd" d="M22.1459 8.71594C22.7451 11.4376 22.8857 14.2683 22.8073 16.3133C22.7887 16.7979 22.3759 17.1758 21.8854 17.1575C21.3948 17.1391 21.0122 16.7314 21.0308 16.2468C21.1286 13.696 20.8601 9.9075 19.7709 6.82187C18.6684 3.6982 16.8858 1.66439 14.1274 1.75951L14.1119 1.76005H14.0964C14.0357 1.76005 13.9112 1.78543 13.7135 1.96813C13.5135 2.15293 13.3025 2.4428 13.0975 2.82145C12.6885 3.5768 12.3957 4.51142 12.2568 5.13755C12.1517 5.61124 11.6777 5.91107 11.1982 5.80723C10.7187 5.70339 10.4152 5.23521 10.5203 4.76152C10.6822 4.03181 11.0213 2.93265 11.5299 1.99319C11.7837 1.52443 12.103 1.05164 12.4991 0.685628C12.894 0.320707 13.4256 0.00937842 14.0792 0.00400065C18.0517 -0.12577 20.2769 2.92146 21.4496 6.24368C21.643 6.79162 21.8121 7.35713 21.9593 7.93154C22.0372 7.62606 22.2793 7.37224 22.6106 7.29226C24.4382 6.85108 26.9942 6.44894 28.9128 6.77115C29.8636 6.93082 30.8612 7.30209 31.4315 8.14929C32.0291 9.03705 31.9733 10.1582 31.4689 11.3784C30.4972 13.7992 28.5506 16.208 26.1712 18.4178C23.7796 20.6389 20.8961 22.7091 17.9763 24.4413C15.0574 26.1729 12.0773 27.5816 9.48352 28.4677C8.1871 28.9107 6.96963 29.2291 5.89317 29.3881C4.83194 29.5448 3.83534 29.5579 3.01925 29.3261C1.807 28.9818 0.960955 28.3314 0.503577 27.4263C0.0612359 26.5511 0.0481066 25.5661 0.216723 24.6562C0.550945 22.8527 1.66582 20.9806 2.55586 19.8178C2.85194 19.431 3.40939 19.3546 3.80096 19.6471C4.19252 19.9395 4.26993 20.4902 3.97385 20.877C3.15895 21.9416 2.2279 23.5559 1.96539 24.9724C1.83565 25.6726 1.88645 26.231 2.09412 26.6419C2.28675 27.0231 2.67679 27.4016 3.51046 27.6384C3.97307 27.7698 4.67828 27.7919 5.63031 27.6513C6.56712 27.5129 7.67437 27.2276 8.90245 26.8081C11.3577 25.9692 14.2258 24.6178 17.0611 22.9358C19.8956 21.2542 22.6722 19.257 24.9535 17.1383C27.2456 15.0097 28.9837 12.8081 29.8179 10.7272L29.8216 10.7179C30.218 9.76093 30.0862 9.32226 29.9512 9.12167C29.7881 8.87939 29.3941 8.63329 28.6149 8.50243C27.0735 8.24358 24.8156 8.56776 23.0327 8.99817C22.6959 9.07948 22.357 8.95943 22.1459 8.71594ZM9.48057 7.96361C13.1186 9.12632 17.0113 11.0447 19.3402 12.3158C19.7699 12.5503 19.9257 13.0845 19.6883 13.509C19.4509 13.9334 18.9102 14.0874 18.4805 13.8529C16.196 12.606 12.4162 10.7476 8.93334 9.63446C7.18557 9.07587 5.57213 8.72478 4.28539 8.70554C2.97118 8.68588 2.23966 9.00929 1.89285 9.51165C1.736 9.73886 1.67039 10.2391 2.1838 11.2523C2.66839 12.2085 3.5372 13.3473 4.64231 14.5694C6.8431 17.0031 9.81047 19.5838 11.9696 21.4263C12.3411 21.7433 12.3821 22.2978 12.0612 22.6647C11.7403 23.0317 11.179 23.0722 10.8075 22.7552C8.65411 20.9176 5.60391 18.2688 3.31653 15.7393C2.17755 14.4798 1.18463 13.2036 0.594135 12.0384C0.032467 10.93 -0.321559 9.6024 0.42414 8.52223C1.28074 7.28141 2.79324 6.9269 4.3123 6.94962C5.85882 6.97274 7.66791 7.38429 9.48057 7.96361ZM9.937 10.7552C10.427 10.7844 10.8004 11.2004 10.7709 11.6844L10.47 16.6234C10.4405 17.1075 10.0194 17.4763 9.52934 17.4472C9.03932 17.418 8.66599 17.002 8.69548 16.518L8.99635 11.579C9.02584 11.0949 9.44698 10.7261 9.937 10.7552ZM27.9695 19.6722C28.347 19.3622 28.9074 19.4132 29.2212 19.7862C29.9058 20.5998 30.8473 21.9197 31.4358 23.2498C31.7289 23.9123 31.9596 24.6329 31.9953 25.3255C32.0312 26.0244 31.8682 26.7745 31.2816 27.3515C30.515 28.1583 29.4758 28.6027 28.3861 28.8272C27.2884 29.0533 26.0773 29.0699 24.8919 28.9725C23.7538 28.879 22.6057 28.6775 21.5525 28.432C21.2204 29.2479 20.8592 30.0969 20.4882 30.9123C20.0334 31.9119 19.5575 32.8755 19.0968 33.6712C18.6552 34.4338 18.1673 35.1515 17.6658 35.5549C16.9835 36.1038 16.1725 36.07 15.5069 35.8532C14.8552 35.6409 14.2096 35.2195 13.6329 34.7564C12.4686 33.8215 11.3503 32.5239 10.6736 31.6188C10.3819 31.2288 10.4656 30.679 10.8604 30.3909C11.2553 30.1027 11.8119 30.1854 12.1035 30.5755C12.7302 31.4136 13.7476 32.5854 14.7542 33.3937C15.263 33.8022 15.7117 34.0708 16.0636 34.1854C16.4015 34.2955 16.5033 34.2253 16.5433 34.1932C16.7641 34.0155 17.1137 33.559 17.5537 32.7993C17.9744 32.0727 18.4237 31.1661 18.8667 30.1925C19.1982 29.4638 19.5224 28.7057 19.8244 27.9695C19.3738 27.8328 18.9618 27.6945 18.6013 27.5625C18.141 27.3939 17.9062 26.8887 18.0769 26.434C18.2475 25.9793 18.759 25.7473 19.2193 25.9159C19.5855 26.05 20.01 26.1912 20.4761 26.3298C20.7087 25.7257 20.9139 25.1713 21.0808 24.7039C21.2441 24.2466 21.7518 24.0067 22.2147 24.168C22.6777 24.3293 22.9206 24.8308 22.7573 25.2881C22.6025 25.7215 22.4158 26.2276 22.2051 26.7785C23.1126 26.9805 24.0839 27.1439 25.0393 27.2224C26.123 27.3114 27.1497 27.288 28.0232 27.108C28.8983 26.9277 29.5581 26.6038 29.9934 26.1413L30.0078 26.126L30.0229 26.1114C30.1452 25.9932 30.2395 25.7966 30.2198 25.4146C30.1995 25.0202 30.0579 24.5205 29.8068 23.9531C29.307 22.8233 28.4733 21.6446 27.8541 20.9087C27.5403 20.5357 27.5919 19.9821 27.9695 19.6722Z" fill="#3372F9"/>
<path d="M17.7782 18.4393C17.7782 19.4092 16.9823 20.1955 16.0005 20.1955C15.0187 20.1955 14.2228 19.4092 14.2228 18.4393C14.2228 17.4695 15.0187 16.6832 16.0005 16.6832C16.9823 16.6832 17.7782 17.4695 17.7782 18.4393Z" fill="#3372F9"/>
</svg>
