<svg width="43" height="32" viewBox="0 0 43 32" fill="none" xmlns="http://www.w3.org/2000/svg">
<path fill-rule="evenodd" clip-rule="evenodd" d="M5.97222 2.21326C3.9932 2.21326 2.38889 3.69962 2.38889 5.53314V21.7637C2.38889 23.5972 3.9932 25.0836 5.97223 25.0836H30.2593C32.2383 25.0836 33.8426 23.5972 33.8426 21.7637V5.53314C33.8426 3.69962 32.2383 2.21326 30.2593 2.21326H5.97222ZM0 5.53314C0 2.47727 2.67386 0 5.97222 0H30.2593C33.2532 0 35.7325 2.04103 36.1647 4.70317H37.0278C40.3261 4.70317 43 7.18044 43 10.2363V26.4669C43 29.5227 40.3261 32 37.0278 32H12.7407C9.74685 32 7.26748 29.959 6.83526 27.2968H5.97223C2.67386 27.2968 0 24.8196 0 21.7637V5.53314ZM9.2703 27.2968C9.66809 28.7287 11.0711 29.7867 12.7407 29.7867H37.0278C39.0068 29.7867 40.6111 28.3004 40.6111 26.4669V10.2363C40.6111 8.40279 39.0068 6.91643 37.0278 6.91643H36.2315V21.7637C36.2315 24.8196 33.5576 27.2968 30.2593 27.2968H9.2703ZM5.89757 10.4669C5.89757 9.85569 6.43234 9.36023 7.09201 9.36023H28.6667C29.3263 9.36023 29.8611 9.85569 29.8611 10.4669C29.8611 11.078 29.3263 11.5735 28.6667 11.5735H7.09201C6.43234 11.5735 5.89757 11.078 5.89757 10.4669ZM5.89757 14.8934C5.89757 14.2822 6.43234 13.7867 7.09201 13.7867H21.8981C22.5578 13.7867 23.0926 14.2822 23.0926 14.8934C23.0926 15.5045 22.5578 16 21.8981 16H7.09201C6.43234 16 5.89757 15.5045 5.89757 14.8934Z" fill="#3372F9"/>
</svg>
