<svg width="35" height="32" viewBox="0 0 35 32" fill="none" xmlns="http://www.w3.org/2000/svg">
<path fill-rule="evenodd" clip-rule="evenodd" d="M18.2611 2.60472C17.9343 1.79187 16.7859 1.76894 16.4266 2.56809L13.1525 9.85101C12.6929 10.8734 11.6946 11.552 10.5699 11.6066L3.22803 11.9631C2.31705 12.0073 1.93983 13.1448 2.64558 13.7195L8.73089 18.674C9.61528 19.394 10.0094 20.5527 9.74607 21.6589L8.12684 28.4623C7.92233 29.3215 8.8647 29.9976 9.61993 29.5334L15.8184 25.7236C16.8194 25.1084 18.0901 25.1346 19.0645 25.7906L25.0753 29.8368C25.8273 30.3431 26.84 29.6594 26.6238 28.7602C26.1778 26.9055 25.7313 24.9991 25.3958 23.4649C25.2282 22.6985 25.0868 22.0185 24.9869 21.4814C24.8941 20.9829 24.8176 20.5114 24.8176 20.2253C24.8176 19.8151 25.0239 19.4646 25.1428 19.2791C25.2918 19.0467 25.4893 18.8014 25.7061 18.5568C26.1427 18.0642 26.7394 17.4843 27.4064 16.8757C28.7456 15.6539 30.4466 14.2462 31.9146 13.0652C32.2608 12.7867 32.3397 12.4122 32.2653 12.1266C32.1966 11.8633 32.0002 11.6539 31.6186 11.6336C24.2224 11.2409 17.8479 14.2469 15.3378 16.031C14.8902 16.3492 14.268 16.2462 13.9481 15.801C13.6282 15.3558 13.7318 14.7369 14.1794 14.4187C16.9756 12.4312 23.7868 9.23325 31.7248 9.65473C33.0272 9.72388 33.921 10.5827 34.1939 11.6292C34.4609 12.6532 34.1325 13.8297 33.1675 14.606C31.7087 15.7796 30.046 17.1566 28.7532 18.3361C28.1043 18.9281 27.5679 19.4529 27.2005 19.8673C27.0153 20.0763 26.893 20.235 26.8227 20.3446L26.8207 20.3477C26.8255 20.3888 26.8318 20.4373 26.8399 20.4939C26.8632 20.6567 26.8987 20.8666 26.946 21.1208C27.0405 21.6285 27.1768 22.2856 27.3426 23.0437C27.6739 24.5583 28.1168 26.4496 28.5616 28.2992C29.1957 30.9363 26.2339 33.0096 23.9585 31.4779L17.9478 27.4317C17.623 27.2131 17.1994 27.2043 16.8658 27.4094L10.6673 31.2192C8.40162 32.6117 5.5745 30.5836 6.18803 28.0058L7.80726 21.2024C7.89502 20.8337 7.76367 20.4474 7.46887 20.2074L1.38356 15.2529C-0.733715 13.5291 0.397972 10.1164 3.13089 9.98374L10.4728 9.6273C10.8477 9.6091 11.1805 9.38288 11.3337 9.04209L14.6078 1.75917C15.6856 -0.638272 19.1309 -0.569483 20.1111 1.86905L22.3837 7.52285C22.588 8.03097 22.3394 8.60757 21.8285 8.81072C21.3177 9.01387 20.7379 8.76664 20.5337 8.25851L18.2611 2.60472ZM26.7746 20.4297C26.7746 20.4297 26.7757 20.4263 26.7794 20.4188C26.7767 20.4259 26.7746 20.4297 26.7746 20.4297Z" fill="#3372F9"/>
</svg>
