<svg width="25" height="28" viewBox="0 0 25 28" fill="none" xmlns="http://www.w3.org/2000/svg">
<path d="M1.05713 1.13867L3.08039 2.28372L3.23889 5.57105M3.23889 5.57105L3.82809 17.791C3.85472 18.3433 4.22848 18.8074 4.74931 18.9349L17.7872 22.1269C18.321 22.2576 18.8794 22.0032 19.151 21.5054L23.2822 13.9355C23.6597 13.2439 23.3401 12.3787 22.6166 12.1337L3.23889 5.57105ZM7.61929 22.2364C7.28777 23.5905 5.95753 24.4284 4.64811 24.1078C3.33869 23.7872 2.54595 22.4296 2.87748 21.0755C3.209 19.7214 4.53925 18.8835 5.84866 19.2041C7.15808 19.5247 7.95082 20.8823 7.61929 22.2364ZM18.6835 24.9452C18.352 26.2993 17.0218 27.1372 15.7123 26.8166C14.4029 26.496 13.6102 25.1384 13.9417 23.7843C14.2732 22.4302 15.6035 21.5923 16.9129 21.9129C18.2223 22.2335 19.0151 23.5911 18.6835 24.9452Z" stroke="#F6F5F8" stroke-width="2" stroke-linecap="round"/>
</svg>
