<svg width="234" height="101" viewBox="0 0 234 101" fill="none" xmlns="http://www.w3.org/2000/svg">
<path d="M2 81.7212C12.1807 75.1598 32.6667 71.0912 50.6179 91.5629C73.0569 117.152 74.9268 69.9103 86.1463 52.1945C97.3659 34.4786 112.325 74.8314 129.154 52.1945C145.984 29.5576 162.19 -2.92152 178.396 18.7312C194.602 40.3838 224.52 35.4632 232 2" stroke="#3372F9" stroke-width="2.50307" stroke-linecap="round"/>
<circle cx="191.761" cy="27.8956" r="2.50307" fill="#3372F9"/>
<path d="M183 13.6319C183 10.5215 185.521 8 188.632 8H204.902C208.012 8 210.534 10.5215 210.534 13.6319C210.534 16.7423 208.012 19.2638 204.902 19.2638H196.143C195.365 19.2638 194.645 19.6718 194.245 20.3387L193.808 21.0662C193.448 21.667 192.577 21.667 192.216 21.0662L191.47 19.8227C191.262 19.476 190.888 19.2638 190.483 19.2638H188.632C185.521 19.2638 183 16.7423 183 13.6319Z" fill="#3372F9"/>
</svg>
