<svg width="27" height="15" viewBox="0 0 27 15" fill="none" xmlns="http://www.w3.org/2000/svg">
<path fill-rule="evenodd" clip-rule="evenodd" d="M1.75987 7.36788C3.32228 9.81571 7.2532 13.4211 13.0602 13.4211C16.7735 13.4211 19.3582 12.3894 21.2525 11.074C22.9208 9.91572 24.0796 8.52238 25.0253 7.31418C24.1627 6.39822 22.7792 5.18259 21.0359 4.10437C18.9722 2.828 16.4507 1.77274 13.7315 1.59868C11.062 1.4278 8.45652 2.38918 6.24898 3.71676C4.30947 4.88315 2.73104 6.3003 1.75987 7.36788ZM5.43525 2.36365C7.79914 0.94204 10.7275 -0.175796 13.8324 0.0229589C16.8877 0.218536 19.6594 1.39651 21.8664 2.76151C24.0722 4.1258 25.7602 5.70545 26.6568 6.7713C26.8965 7.05624 26.9045 7.46991 26.676 7.76392C26.637 7.81415 26.5974 7.86518 26.5572 7.91697C25.5625 9.1991 24.2093 10.9433 22.1531 12.371C19.9949 13.8695 17.0962 15 13.0602 15C6.14899 15 1.62731 10.4481 0.0973215 7.65921C-0.0587931 7.37464 -0.0248263 7.02352 0.18294 6.77415C1.19784 5.55603 3.06866 3.78688 5.43525 2.36365Z" fill="#3372F9"/>
<path fill-rule="evenodd" clip-rule="evenodd" d="M13.4211 11.0527C15.7134 11.0527 17.3684 9.35394 17.3684 7.50003C17.3684 5.64612 15.7134 3.94739 13.4211 3.94739C11.1288 3.94739 9.4737 5.64612 9.4737 7.50003C9.4737 9.35394 11.1288 11.0527 13.4211 11.0527ZM13.4211 12.6316C16.4732 12.6316 18.9474 10.3341 18.9474 7.50003C18.9474 4.66593 16.4732 2.36845 13.4211 2.36845C10.369 2.36845 7.89475 4.66593 7.89475 7.50003C7.89475 10.3341 10.369 12.6316 13.4211 12.6316Z" fill="#3372F9"/>
<path d="M11.8849 6.3186C11.6637 6.15695 11.6126 5.8419 11.8147 5.65685C12.0705 5.42263 12.3737 5.24294 12.7058 5.13119C13.1957 4.96639 13.7246 4.95746 14.2197 5.10565C14.7149 5.25383 15.1519 5.55184 15.4707 5.95865C15.7895 6.36546 15.9744 6.86109 15.9999 7.3773C16.0254 7.89352 15.8903 8.40496 15.6132 8.84122C15.3361 9.27748 14.9305 9.61713 14.4524 9.8134C13.9743 10.0097 13.447 10.0529 12.9433 9.93724C12.6018 9.85879 12.2824 9.70986 12.0047 9.502C11.7854 9.33778 11.8051 9.01922 12.0094 8.83655C12.2136 8.65388 12.5254 8.68079 12.7643 8.81504C12.8892 8.88523 13.0242 8.93767 13.1655 8.97012C13.4692 9.0399 13.7872 9.01381 14.0755 8.89544C14.3639 8.77707 14.6085 8.57223 14.7756 8.30913C14.9427 8.04603 15.0242 7.7376 15.0088 7.42628C14.9935 7.11496 14.882 6.81606 14.6897 6.57072C14.4974 6.32538 14.2339 6.14566 13.9352 6.05629C13.6366 5.96693 13.3177 5.97231 13.0222 6.0717C12.8848 6.11792 12.7557 6.18341 12.6383 6.26557C12.4139 6.42272 12.1062 6.48025 11.8849 6.3186Z" fill="#3372F9"/>
</svg>
