<svg width="52" height="49" viewBox="0 0 52 49" fill="none" xmlns="http://www.w3.org/2000/svg">
<path d="M24.1441 1.6217C24.8159 -0.0512381 27.1841 -0.05124 27.8559 1.6217L33.2909 15.1558C33.5769 15.8682 34.2456 16.354 35.0115 16.4059L49.5627 17.3926C51.3613 17.5145 52.0932 19.7669 50.7097 20.9228L39.5175 30.274C38.9284 30.7662 38.673 31.5522 38.8603 32.2967L42.4185 46.4406C42.8583 48.1889 40.9423 49.5809 39.4155 48.6224L27.0634 40.8676C26.4132 40.4594 25.5868 40.4594 24.9366 40.8676L12.5845 48.6224C11.0577 49.5809 9.14169 48.1889 9.58152 46.4406L13.1397 32.2967C13.327 31.5522 13.0716 30.7662 12.4825 30.274L1.29028 20.9228C-0.0931764 19.7669 0.638661 17.5145 2.43732 17.3926L16.9885 16.4059C17.7544 16.354 18.4231 15.8682 18.7091 15.1558L24.1441 1.6217Z" fill="#3372F9"/>
</svg>
