<svg width="28" height="26" viewBox="0 0 28 26" fill="none" xmlns="http://www.w3.org/2000/svg">
<path d="M25.0055 4.34623V23.6274C25.0055 24.9369 24.0413 26.001 22.8661 26.001H4.21564C3.04042 26.001 2.07624 24.9408 2.07624 23.6274V4.34623C2.07624 3.04077 3.04042 1.97267 4.21564 1.97267H22.8661C24.0413 1.97663 25.0055 3.0566 25.0055 4.34623Z" fill="#E5E5E5"/>
<path d="M24.6632 18.9204H2.41854C2.06335 18.9204 1.72272 18.7829 1.47157 18.5383C1.22041 18.2936 1.07932 17.9618 1.07932 17.6159V1.41835C1.07932 1.30096 1.12719 1.18839 1.2124 1.10538C1.29761 1.02238 1.41319 0.975748 1.53369 0.975748H25.548C25.6685 0.975748 25.7841 1.02238 25.8693 1.10538C25.9545 1.18839 26.0024 1.30096 26.0024 1.41835V17.6159C26.0024 17.9618 25.8613 18.2936 25.6101 18.5383C25.359 18.7829 25.0184 18.9204 24.6632 18.9204Z" fill="#3372F9"/>
<path fill-rule="evenodd" clip-rule="evenodd" d="M0.733215 18.9204C0.733215 18.7292 0.888194 18.5743 1.07937 18.5743H26.0024C26.1936 18.5743 26.3486 18.7292 26.3486 18.9204C26.3486 19.1116 26.1936 19.2666 26.0024 19.2666H1.07937C0.888194 19.2666 0.733215 19.1116 0.733215 18.9204Z" fill="#001F5E"/>
<path fill-rule="evenodd" clip-rule="evenodd" d="M0.0410156 1.03846C0.0410156 0.464935 0.505951 0 1.07948 0H26.0026C26.5761 0 27.041 0.464935 27.041 1.03846C27.041 1.61199 26.5761 2.07692 26.0026 2.07692H1.07948C0.505951 2.07692 0.0410156 1.61199 0.0410156 1.03846Z" fill="#001F5E"/>
<path d="M1.07931 3.96652H26.0024V5.96036H1.07931V3.96652Z" fill="#DDE8FF"/>
<path d="M1.07931 7.95409H26.0024V9.94794H1.07931V7.95409Z" fill="#DDE8FF"/>
<path d="M1.07931 11.9418H26.0024V13.9356H1.07931V11.9418Z" fill="#DDE8FF"/>
<path d="M1.07931 15.9296H26.0024V17.9234H1.07931V15.9296Z" fill="#DDE8FF"/>
</svg>
