<svg width="26" height="24" viewBox="0 0 26 24" fill="none" xmlns="http://www.w3.org/2000/svg">
<path d="M23.214 2.37076V21.6292C23.214 22.9371 22.2802 24 21.1419 24H3.07865C1.94042 24 1.0066 22.9411 1.0066 21.6292V2.37076C1.0066 1.06684 1.94042 0 3.07865 0H21.1419C22.2802 0.00395127 23.214 1.08265 23.214 2.37076Z" fill="#E5E5E5"/>
<path fill-rule="evenodd" clip-rule="evenodd" d="M2.88534 12.1584V1.11108H3.57979V12.1584H2.88534Z" fill="#10005B"/>
<path fill-rule="evenodd" clip-rule="evenodd" d="M21.0962 11.849V1.69055H21.7907V11.849H21.0962Z" fill="#10005B"/>
<path d="M24.424 3.32132H0.65789C0.317211 3.32132 0.0410359 3.60736 0.0410359 3.96019V4.89271C0.0410359 5.24555 0.317211 5.53158 0.65789 5.53158H24.424C24.7647 5.53158 25.0409 5.24555 25.0409 4.89271V3.96019C25.0409 3.60736 24.7647 3.32132 24.424 3.32132Z" fill="#3372F9"/>
<path d="M12.0643 6.64282C13.5317 7.09519 16.344 7.96025 19.1332 8.85308H11.0222V6.64282H12.0643Z" fill="#0E0050"/>
<path d="M24.1352 1.32935H23.4408V2.21448H24.1352V1.32935Z" fill="#3372F9"/>
<path d="M24.1352 9.96802H23.4408V12.1783H24.1352V9.96802Z" fill="#3372F9"/>
<path d="M24.1352 6.64287H23.4408V8.84519H24.1352V6.64287Z" fill="#3372F9"/>
<path d="M24.1352 18.4598H23.4408V17.8588C23.357 17.9487 23.3055 18.0711 23.3055 18.2059C23.3055 18.4821 23.5216 18.7059 23.7882 18.7059C24.0548 18.7059 24.271 18.4821 24.271 18.2059C24.271 18.0708 24.2193 17.9483 24.1352 17.8583V18.4598Z" fill="#3372F9"/>
<path fill-rule="evenodd" clip-rule="evenodd" d="M24.424 0.0042286H0.65787C0.31719 0.0042286 0.0410156 0.290261 0.0410156 0.6431V1.57561C0.0410156 1.92845 0.31719 2.21448 0.65787 2.21448H23.4408V6.64287H0.657793C0.497148 6.64593 0.343904 6.71338 0.230292 6.83105C0.116679 6.94871 0.0515503 7.10743 0.0486019 7.27381V8.20632C0.049614 8.37612 0.115453 8.53862 0.231745 8.65831C0.348037 8.77801 0.505333 8.84519 0.669288 8.84519H23.4408V9.96802H0.669288C0.504982 9.96906 0.347691 10.0371 0.231507 10.1574C0.115323 10.2778 0.0496069 10.4407 0.0486019 10.6109V11.5394C0.049614 11.7092 0.115453 11.8717 0.231745 11.9914C0.348037 12.1111 0.505333 12.1783 0.669288 12.1783H23.4408V17.8588C23.5286 17.7645 23.6518 17.7059 23.7882 17.7059C23.9244 17.7059 24.0474 17.7643 24.1352 17.8583V12.1783H24.4239C24.5872 12.1772 24.7436 12.1096 24.859 11.99C24.9745 11.8704 25.0398 11.7085 25.0408 11.5394V10.6109C25.0408 10.441 24.9759 10.2781 24.8604 10.1577C24.7448 10.0373 24.5879 9.96907 24.4239 9.96802H24.1352V8.84519H24.4239C24.5872 8.84415 24.7436 8.77651 24.859 8.65692C24.9745 8.53733 25.0398 8.37544 25.0408 8.20632V7.27381C25.0378 7.104 24.97 6.94234 24.8523 6.82412C24.7345 6.70591 24.5764 6.64075 24.4125 6.64287H24.1352V2.21448H24.424C24.7647 2.21448 25.0409 1.92845 25.0409 1.57561V0.6431C25.0409 0.290261 24.7647 0.0042286 24.424 0.0042286ZM24.1352 6.64287V8.84519H23.4408V6.64287H24.1352ZM24.1352 9.96802V12.1783H23.4408V9.96802H24.1352ZM24.1352 2.21448H23.4408V1.32935H24.1352V2.21448Z" fill="#3372F9"/>
<path d="M23.4408 18.4598H24.1352V17.8583C24.0474 17.7643 23.9244 17.7059 23.7882 17.7059C23.6518 17.7059 23.5286 17.7645 23.4408 17.8588V18.4598Z" fill="#3372F9"/>
</svg>
