<svg width="28" height="24" viewBox="0 0 28 24" fill="none" xmlns="http://www.w3.org/2000/svg">
<path d="M25.0036 2.74256V21.6714C25.0048 21.921 24.9672 22.1694 24.8919 22.4088C24.7831 22.8442 24.5266 23.2348 24.1607 23.5217C23.7949 23.8087 23.3396 23.9766 22.8633 24.0001H4.21663C3.04086 24.0001 2.07624 22.956 2.07624 21.6714V2.74256C2.07624 1.46175 3.04086 0.413818 4.21663 0.413818H22.8757C24.039 0.413818 25.0036 1.43458 25.0036 2.69599C25.0061 2.71143 25.0061 2.72712 25.0036 2.74256Z" fill="#E5E5E5"/>
<path d="M24.4677 18.803H2.61448C2.26554 18.803 1.9309 18.6663 1.68417 18.4231C1.43744 18.1799 1.29882 17.85 1.29882 17.506V1.402C1.29882 1.28529 1.34585 1.17336 1.42956 1.09084C1.51328 1.00832 1.62682 0.961954 1.7452 0.961954H25.337C25.4553 0.961954 25.5689 1.00832 25.6526 1.09084C25.7363 1.17336 25.7833 1.28529 25.7833 1.402V17.506C25.7833 17.85 25.6447 18.1799 25.398 18.4231C25.1513 18.6663 24.8166 18.803 24.4677 18.803Z" fill="#3372F9"/>
<path fill-rule="evenodd" clip-rule="evenodd" d="M0.733215 18.7411C0.733215 18.5527 0.888194 18.3999 1.07937 18.3999H26.0024C26.1936 18.3999 26.3486 18.5527 26.3486 18.7411C26.3486 18.9296 26.1936 19.0824 26.0024 19.0824H1.07937C0.888194 19.0824 0.733215 18.9296 0.733215 18.7411Z" fill="#001F5E"/>
<path fill-rule="evenodd" clip-rule="evenodd" d="M0.0410156 1.02371C0.0410156 0.458331 0.505951 0 1.07948 0H26.0026C26.5761 0 27.041 0.458331 27.041 1.02371C27.041 1.58909 26.5761 2.04742 26.0026 2.04742H1.07948C0.505951 2.04742 0.0410156 1.58909 0.0410156 1.02371Z" fill="#001F5E"/>
</svg>
