<svg width="26" height="25" viewBox="0 0 26 25" fill="none" xmlns="http://www.w3.org/2000/svg">
<path d="M23.5215 2.29041V20.9115C23.5215 22.175 22.589 23.2019 21.4524 23.2019H3.41485C2.27825 23.2019 1.34576 22.175 1.34576 20.9115V2.29041C1.34576 1.03069 2.27825 0 3.41485 0H21.4524C22.577 0 23.5015 1.00396 23.5175 2.24461C23.5212 2.2596 23.5225 2.27504 23.5215 2.29041Z" fill="#E5E5E5"/>
<path fill-rule="evenodd" clip-rule="evenodd" d="M0.0410156 2.39803C0.0410156 2.20934 0.193578 2.05637 0.381772 2.05637H24.7003C24.8885 2.05637 25.041 2.20934 25.041 2.39803C25.041 2.58673 24.8885 2.7397 24.7003 2.7397H0.381772C0.193578 2.7397 0.0410156 2.58673 0.0410156 2.39803Z" fill="#10005B"/>
<path d="M5.40201 24.3833V0.620565C5.40201 0.279935 5.12661 0.00379976 4.78688 0.00379976H3.88903C3.5493 0.00379976 3.2739 0.279935 3.2739 0.620565V24.3833C3.2739 24.7239 3.5493 25 3.88903 25H4.78688C5.12661 25 5.40201 24.7239 5.40201 24.3833Z" fill="#3372F9"/>
<path d="M8.86407 24.3795V0.616765C8.86407 0.276135 8.58867 0 8.24894 0H7.35108C7.01136 0 6.73596 0.276135 6.73596 0.616765V24.3795C6.73596 24.7201 7.01136 24.9962 7.35108 24.9962H8.24894C8.58867 24.9962 8.86407 24.7201 8.86407 24.3795Z" fill="#3372F9"/>
<path d="M18.2395 24.3833V0.620564C18.2395 0.279934 17.9641 0.00379976 17.6244 0.00379976H16.7265C16.3868 0.00379976 16.1114 0.279934 16.1114 0.620564V24.3833C16.1114 24.7239 16.3868 25 16.7265 25H17.6244C17.9641 25 18.2395 24.7239 18.2395 24.3833Z" fill="#3372F9"/>
<path d="M21.6593 24.3795V0.616765C21.6593 0.276135 21.3839 0 21.0442 0H20.1463C19.8066 0 19.5312 0.276135 19.5312 0.616765V24.3795C19.5312 24.7201 19.8066 24.9962 20.1463 24.9962H21.0442C21.3839 24.9962 21.6593 24.7201 21.6593 24.3795Z" fill="#3372F9"/>
</svg>
